<svg width="256" height="75" viewBox="0 0 256 75" fill="none" xmlns="http://www.w3.org/2000/svg">
<g clip-path="url(#clip0_61_256)">
<path d="M255.885 75C255.962 74.3762 256 73.7396 256 73.0903C256 63.7201 248.363 56.1195 238.949 56.1195C235.405 56.1195 232.118 57.2017 229.381 59.035C229.624 58.1056 229.764 57.1253 229.764 56.1195C229.764 49.6393 224.481 44.3685 217.958 44.3685C216.998 44.3685 216.077 44.4958 215.182 44.7123C215.438 43.5919 215.591 42.4461 215.591 41.2494C215.591 32.8849 208.773 26.1119 200.382 26.1119C198.527 26.1119 196.774 26.4556 195.124 27.054C195.444 26.0864 195.649 25.0806 195.649 24.0112C195.649 18.5368 191.185 14.0935 185.684 14.0935C185.441 14.0935 185.211 14.1445 184.981 14.1699C183.88 6.16194 176.999 0 168.658 0C162.135 0 156.506 3.78119 153.82 9.24291C151.019 7.35868 147.642 6.26379 144.009 6.26379C135.566 6.26379 128.505 12.1966 126.817 20.1027C124.322 17.8365 121.009 16.4488 117.377 16.4488C111.249 16.4488 106.043 20.3701 104.137 25.819C101.464 24.6605 98.5088 24.0112 95.4132 24.0112C84.2588 24.0112 75.0744 32.2865 73.6545 42.9935C70.3543 40.5873 66.2993 39.1487 61.899 39.1487C51.333 39.1487 42.7114 47.3349 42.0335 57.6854C38.9891 54.0188 34.3713 51.6763 29.2162 51.6763C21.0807 51.6763 14.3267 57.4945 12.8812 65.1714C11.9858 64.9041 11.052 64.7258 10.0671 64.7258C4.50267 64.7386 0 69.2327 0 74.7708C0 74.8472 0.0255834 74.9363 0.0255834 75.0127H255.885V75Z" fill="url(#paint0_linear_61_256)"/>
</g>
<defs>
<linearGradient id="paint0_linear_61_256" x1="0" y1="37.5064" x2="256" y2="37.5064" gradientUnits="userSpaceOnUse">
<stop stop-color="#D5F1D8"/>
<stop offset="1" stop-color="#C5EAC9"/>
</linearGradient>
<clipPath id="clip0_61_256">
<rect width="256" height="75" fill="white"/>
</clipPath>
</defs>
</svg>
