<svg width="357" height="97" viewBox="0 0 357 97" fill="none" xmlns="http://www.w3.org/2000/svg">
<g clip-path="url(#clip0_61_270)">
<path d="M356.962 97C356.987 96.6956 357.013 96.3912 357.013 96.0867C357.013 88.9072 351.156 83.0976 343.946 83.0976C340.131 83.0976 336.711 84.7339 334.312 87.3216C331.568 82.1716 326.12 78.6579 319.841 78.6579C319.127 78.6579 318.438 78.7213 317.749 78.8101C315.044 73.7236 309.659 70.248 303.47 70.248C300.943 70.248 298.557 70.8441 296.426 71.8716C294.959 61.0262 285.631 52.6669 274.325 52.6669C270.05 52.6669 266.069 53.8847 262.675 55.9523C259.523 50.9291 253.921 47.5931 247.528 47.5931C242.258 47.5931 237.536 49.8763 234.27 53.4788C230.225 49.8383 224.878 47.5931 218.983 47.5931C217.056 47.5931 215.193 47.8594 213.406 48.3034C211.288 42.5319 205.725 38.3966 199.178 38.3966C198.91 38.3966 198.642 38.422 198.374 38.4347C198.374 38.422 198.374 38.4093 198.374 38.3966C198.374 30.5194 191.943 24.1263 184.019 24.1263C182.207 24.1263 180.472 24.4815 178.864 25.0904C179.093 23.8473 179.234 22.5788 179.234 21.2723C179.234 9.53893 169.663 0.0253906 157.86 0.0253906C146.056 0.0253906 136.486 9.53893 136.486 21.2723C136.486 23.5428 136.856 25.7246 137.507 27.7795C134.355 25.4963 130.476 24.1263 126.278 24.1263C115.699 24.1263 107.137 32.6505 107.137 43.1534C107.137 45.3479 107.533 47.4535 108.222 49.4197C106.078 48.2527 103.628 47.5931 101.012 47.5931C92.6922 47.5931 85.9546 54.2906 85.9546 62.561C85.9546 65.2882 86.7075 67.8379 87.9835 70.045C84.1937 65.2629 78.3238 62.1805 71.7139 62.1805C64.7977 62.1805 58.6982 65.5546 54.9339 70.7173C52.8029 69.3093 50.2508 68.4975 47.4945 68.4975C41.6885 68.4975 36.7374 72.0872 34.734 77.1611C32.7689 75.7151 30.3444 74.8398 27.7158 74.8398C21.1952 74.8398 15.9123 80.0913 15.9123 86.5732C15.9123 86.9537 15.9378 87.3216 15.9634 87.6894C14.4959 86.9918 12.8626 86.5732 11.1271 86.5732C5.19352 86.5732 0.344533 91.1777 0 97H356.962Z" fill="url(#paint0_linear_61_270)"/>
</g>
<defs>
<linearGradient id="paint0_linear_61_270" x1="0" y1="48.5127" x2="357.013" y2="48.5127" gradientUnits="userSpaceOnUse">
<stop stop-color="#35BA8F"/>
<stop offset="1" stop-color="#3ACC9D"/>
</linearGradient>
<clipPath id="clip0_61_270">
<rect width="357" height="97" fill="white"/>
</clipPath>
</defs>
</svg>
