<svg width="122" height="81" viewBox="0 0 122 81" fill="none" xmlns="http://www.w3.org/2000/svg">
<g clip-path="url(#clip0_61_266)">
<path d="M33.1567 58.7229C32.3632 57.9811 32.0871 56.7045 32.6737 55.7384C32.9497 55.2554 33.3637 54.9449 33.7605 54.5998C34.347 54.0651 35.3994 52.892 35.2096 53.0817L35.2958 52.9782C35.8824 52.0294 43.0244 44.4217 45.405 42.0065C70.8504 16.1298 79.7693 7.81478 93.3114 2.67394C121.776 -8.19427 129.867 16.6819 113.978 30.707C111.718 32.7082 105.594 37.228 99.7461 40.5574C95.2263 43.1451 90.5857 45.0945 84.3236 47.6994C66.8482 54.9966 55.6349 58.0156 47.3199 59.6372C44.5597 60.172 34.0538 61.3968 33.1567 58.7229Z" fill="#88BDAE"/>
<path d="M93.277 27.9813C94.9158 27.8951 96.8307 28.0158 100.057 27.4638C104.438 26.791 114.065 23.0993 114.065 23.0993C114.41 23.1338 114.651 22.7715 114.479 22.461C114.323 22.185 113.909 22.185 113.754 22.4437C112.788 22.737 101.471 26.1527 96.5374 25.963C96.5029 25.9802 95.8992 26.0147 95.2091 26.0147C97.1412 24.6346 99.1251 23.1855 101.195 21.6502C102.886 20.4081 112.788 12.6968 110.804 11.955C110.58 11.8688 110.356 11.9895 110.321 12.2138C110.321 12.2138 109.096 14.3357 94.6743 23.5823C94.8986 23.013 95.1746 22.2885 95.5541 21.3569C97.9175 15.3708 101.04 10.3852 101.04 10.3852C101.213 10.1264 102.023 9.0741 101.885 8.79809C101.765 8.50482 101.368 8.62558 101.351 8.88434C101.351 8.90159 101.351 8.90159 101.333 8.91885C101.333 8.90159 101.351 8.90159 101.351 8.88434C101.333 8.90159 101.333 8.95335 101.316 8.9706C101.282 9.0051 100.695 9.50538 100.643 9.55714C101.005 9.22937 99.4529 10.5577 98.7283 11.6618C96.6755 14.7325 94.0015 20.2183 94.312 19.6145L91.9831 24.3759C91.8451 24.7209 91.8624 25.0314 91.9831 25.3074C87.9981 27.8261 83.1506 30.7933 77.2679 34.2953C77.3887 32.3459 77.5957 29.5167 77.82 28.2229C77.7165 28.6196 77.9235 27.7053 78.0615 27.2913C78.1305 27.136 79.3726 23.9446 80.0626 22.53C79.8384 23.0993 81.5117 19.442 81.3565 19.6836C81.6842 19.0108 81.6325 19.2178 82.0638 18.9073C82.564 18.545 81.9257 17.7514 81.46 18.2345C80.0109 19.6663 77.8372 24.4276 77.1817 25.7387C75.9741 27.9468 75.3358 32.5874 75.146 35.5718C74.8873 35.7271 74.6458 35.8651 74.387 36.0204C61.1209 43.8696 59.551 44.4389 59.551 44.4389C59.4993 44.4734 59.3785 44.5252 59.4303 44.4907C59.3095 44.5424 58.1019 45.1462 56.6183 45.888C56.6356 45.681 56.6701 45.4567 56.6873 45.2152C56.9634 42.6276 56.4458 43.7316 58.8265 38.056C58.9127 37.78 59.9823 35.8134 60.6206 35.0371C60.9484 35.0026 61.1381 34.5713 60.8794 34.3125C60.6378 34.071 60.2411 34.2263 60.1721 34.5368C57.5326 37.6247 57.0669 38.9186 56.2561 40.6437C56.4976 40.2124 55.5315 41.9893 55.221 42.9381C55.497 42.041 54.5482 44.9047 54.4102 46.9921C52.4263 47.9754 50.5804 48.8897 50.4252 48.976C52.3918 48.0099 35.7445 55.6867 34.6921 56.1697C16.0092 64.7953 3.19158 75.5945 1.3112 76.9228C-0.275899 78.0614 -0.189644 79.4242 0.569406 80.235C2.12201 81.9256 3.65736 80.2178 8.8327 76.595C30.7071 61.3105 40.523 58.3606 55.152 51.0289C56.6873 51.6844 59.8443 51.2876 61.1554 51.2014C65.2784 50.8736 69.0219 49.3382 70.471 49.1312C71.2818 49.4072 71.3163 47.9754 70.5055 48.2169L66.8138 48.6655C65.1921 48.769 62.3457 49.1657 59.3613 48.8897C64.4158 46.2158 70.1432 42.9208 77.0782 38.4528C77.5095 38.608 77.9235 38.3493 78.579 38.4528C80.5801 38.8668 81.2702 39.5051 87.5669 39.1428C88.9642 39.0566 89.0332 38.9876 90.9136 38.5218C92.1557 38.2113 93.1907 37.9698 93.9153 37.6765C94.5018 37.78 94.8468 37.0554 94.4328 36.6587C94.1395 36.3654 93.6393 36.4689 93.4667 36.8139C92.1557 37.1589 88.3087 37.6592 88.3777 37.6592C86.066 37.78 83.8061 37.642 83.8924 37.642C81.391 37.4867 80.4076 37.1244 79.5451 36.8312C83.4611 34.278 87.7394 31.3453 92.5007 27.9641C92.7077 28.0503 92.9665 28.0158 93.277 27.9813Z" fill="#BE7320"/>
</g>
<defs>
<clipPath id="clip0_61_266">
<rect width="122" height="80.9251" fill="white"/>
</clipPath>
</defs>
</svg>
