<svg width="65" height="161" viewBox="0 0 65 161" fill="none" xmlns="http://www.w3.org/2000/svg">
<g clip-path="url(#clip0_61_258)">
<path d="M16.1878 108.76C17.4225 104.027 18.497 105.285 16.0964 104.53C8.50582 102.061 3.27016 93.0986 6.67677 84.7764C10.1291 76.4542 12.0953 82.2157 4.96203 74.9453C-3.40589 66.4402 0.000724885 52.7223 6.44814 47.921C-4.02319 36.8552 3.70456 23.2745 9.90048 21.6741C13.5814 20.7138 12.8956 22.0399 12.6441 19.5249C11.7524 10.2653 13.993 6.44719 18.1769 2.49186C19.9603 0.82285 24.19 -1.37201 28.3053 1.14293C28.2367 1.12007 29.2884 1.71451 30.203 2.56045C32.1692 4.43523 32.878 6.69869 33.8382 8.66492C35.1643 11.3628 36.1245 12.6431 36.9019 15.0437C37.7935 17.7873 36.5818 17.3072 38.548 16.9643C41.2002 16.4841 44.3553 17.513 46.6187 20.1422C47.579 21.2625 49.7281 24.4634 50.3226 26.4982C51.8773 31.6653 51.9459 35.9178 49.7738 41.4964C56.2213 41.5193 58.8734 49.7729 58.3018 48.4697C60.4052 53.4082 60.9311 57.6836 56.6785 66.303C56.3127 67.0346 56.267 66.8517 56.8843 66.9889C62.8744 68.5664 64.5206 74.8309 63.8576 81.004C63.446 84.8679 61.6398 89.189 58.0275 93.03C59.8565 93.876 61.0683 95.705 62.1428 97.2368C63.9719 100.232 64.9093 103.981 65.0007 106.428C65.1608 111.092 62.0742 115.916 56.6785 117.745C52.4031 119.185 48.9279 119.666 39.1425 117.128C37.2677 120.054 34.3641 122.181 29.8372 122.866C21.5607 124.124 13.9244 117.562 16.1878 108.76Z" fill="#8AC4D1"/>
<path d="M16.7366 10.539C16.7366 10.5165 16.7366 10.5165 16.7366 10.494C16.7366 10.5165 16.7141 10.5165 16.7366 10.539Z" fill="#5FA4B0"/>
<path d="M54.0947 76.4771C53.8203 77.3002 52.0827 80.3867 51.6483 81.1184C51.6483 81.1184 51.3054 81.6899 50.2994 83.3361C48.2417 86.6741 46.1383 89.3034 46.1383 89.3034C44.2864 91.6583 40.6054 95.0649 40.3082 95.3621C39.9195 95.6593 39.6223 95.888 39.3936 96.048C38.1819 90.698 36.9016 85.028 35.6441 79.175C35.8956 79.1293 36.1013 78.9921 36.2385 78.7635C36.3528 78.5806 36.8787 78.0776 36.7644 78.1919C36.8101 78.1462 36.9473 78.009 36.9244 78.0318C39.9881 74.9224 41.3827 72.8876 41.3599 72.9333C46.9842 65.7772 51.0539 53.6826 51.0539 53.6826C51.1453 53.3853 51.191 53.1338 50.8481 52.9967C50.6423 52.9281 50.3908 53.0424 50.3222 53.2482C49.8878 54.437 49.2705 55.8546 48.7904 56.9977C46.5041 61.9362 43.7376 66.6231 43.9663 66.1887C43.0289 67.8806 40.7197 70.7842 39.668 72.1789C38.0904 74.328 35.164 77.0716 35.5755 76.6143C35.5298 76.66 35.3469 76.8429 35.1868 76.9801C33.4949 68.9552 31.8945 60.5644 30.637 52.0364C31.0486 51.9678 31.1858 51.7621 31.4144 51.442C31.4373 51.3962 31.5058 51.3276 31.4601 51.3734C31.8488 50.8932 31.8031 50.9161 32.0546 50.4589C32.2375 50.0702 33.152 49.1785 33.4492 48.8356C35.0725 47.0065 36.0328 46.0463 40.3768 38.7529C40.3768 38.7529 41.6114 36.6266 43.0289 31.6196C43.1661 31.1166 44.2864 27.4814 44.2178 26.9555C44.172 26.5897 43.5776 26.6354 43.6005 27.047C43.6005 27.0698 43.6005 27.2527 43.349 28.2358C43.2575 28.5559 42.8231 30.2021 42.8917 29.9734C41.0169 36.7638 37.5875 40.6048 36.7644 41.9766C36.33 42.7082 35.9184 43.417 35.3469 44.1943C32.8776 47.2351 31.986 48.5155 30.5227 49.6815C30.4541 49.7501 30.3856 49.7958 30.317 49.8415C30.2712 49.4529 30.2026 49.0642 30.1569 48.6527C30.1569 48.5612 29.8597 46.2978 29.8368 46.2063C29.7911 45.6347 29.4253 43.1426 28.9909 41.0849C27.6191 34.5461 26.4988 26.6583 26.4988 26.6583C26.4531 26.2239 26.3845 25.8352 26.3388 25.4465C26.5903 25.2865 26.7046 25.035 26.7046 25.0121C28.2136 22.36 28.6708 22.9316 30.4999 17.1472C31.5973 13.9235 31.5516 12.1173 31.5516 12.1173C31.5516 11.3857 31.5287 11.0656 31.5287 11.0656C31.5058 10.7455 31.14 10.6541 30.98 10.8598C30.7971 11.0656 30.7514 11.7744 30.7056 12.0487C30.477 13.6491 30.3398 14.0835 29.5396 16.3699C28.2135 20.3023 26.9789 21.8799 26.0644 23.0688C25.7672 20.2566 25.7443 19.0906 25.7443 17.1701C25.7443 18.0846 26.0187 11.5 25.7215 10.6312C25.63 10.1053 24.6926 10.1282 24.6698 10.7912C24.6698 10.7912 24.0525 16.3927 24.0067 19.4792C24.0067 20.0508 24.0067 20.6224 24.0296 21.2397C22.8636 20.4852 22.5206 20.0508 21.7204 19.0448C21.789 19.1363 20.783 17.8102 20.7144 17.7188C19.6399 16.2098 18.4281 13.9921 18.4281 13.9921C18.1995 13.4205 17.5364 11.5915 17.3993 10.9284C17.3535 10.5169 17.3764 10.0825 16.9649 10.1739C16.8048 10.1968 16.7134 10.3568 16.7362 10.5169C16.9877 13.672 17.7651 15.6382 19.4112 18.1532C20.12 19.2506 22.6121 23.0459 23.8924 22.8401C23.9839 22.8173 24.0753 22.7944 24.1439 22.7715C24.6926 31.1395 27.1618 42.7311 27.6191 45.9091C26.9789 45.7262 25.8129 45.2689 25.4242 45.086C25.4242 45.086 24.8527 44.8345 24.4869 44.6973C19.2512 42.8454 12.758 38.41 12.8266 38.4557C12.095 37.8384 8.82558 33.7916 8.45977 33.2657C8.45977 32.8771 8.0025 32.6942 7.70528 32.9457C7.47665 33.1514 7.52238 33.563 7.8196 33.7001C8.254 34.4089 10.7004 37.5869 11.2033 38.2728C13.8555 41.7708 25.8358 48.0582 27.6648 47.7839C27.7334 47.7839 27.802 47.7381 27.8477 47.7153C29.0138 56.289 30.2712 63.9253 31.5287 71.0586C30.7285 71.0586 29.4253 71.0586 29.9054 71.0586C24.8984 71.0128 24.1896 70.6013 24.1896 70.6013C23.4351 70.3727 17.5364 67.8806 18.108 68.2007C15.6617 67.1947 11.935 64.634 10.7232 63.5823C9.9916 62.805 7.59097 59.3983 7.59097 59.3983C7.54524 59.284 7.52238 59.2154 7.49951 59.1011C7.61383 58.4152 6.42494 58.6667 6.83648 59.2612C7.06511 60.3815 8.18541 61.9133 9.19139 63.3765C10.0831 64.6797 9.78583 64.3597 13.4897 66.9889C16.3933 69.0466 18.0166 69.481 20.7373 70.6699C22.6578 71.5387 23.3208 71.9274 25.0813 72.1789C26.2702 72.3618 30.7285 72.6133 31.7802 72.6361C33.1749 80.5239 34.5924 87.8401 35.8727 95.2478C35.8041 95.2478 35.7127 95.2478 35.6441 95.2478C34.7981 95.2707 28.4193 94.1732 28.7394 94.1732C20.3029 91.7269 18.2909 90.3322 18.2909 90.3322C16.2104 89.029 14.0841 86.3312 14.0612 87.6344C14.0841 87.9316 14.2899 88.1831 14.4728 88.4117C14.9529 89.0061 16.3704 90.378 16.3018 90.2865C20.7602 94.882 33.3578 97.3055 36.1699 97.1454C36.833 101.009 37.4731 104.896 38.0676 108.92C33.9065 110.475 27.9849 111.595 23.5723 111.001C22.8178 110.886 22.6807 110.68 22.6807 110.68C22.2691 110.269 21.9262 110.52 21.9948 110.84C22.0176 110.978 22.292 111.161 22.4063 111.275C24.0525 112.83 30.1112 112.349 32.3746 112.007C32.649 111.961 36.0785 111.046 37.4503 110.749C37.7704 110.68 38.0676 110.589 38.3191 110.52C40.1481 123.301 41.5199 137.408 41.9772 155.652C42 156.087 42 157.733 42.0915 158.167C42.7774 161.505 47.7158 161.254 47.9673 157.779C48.0588 156.498 47.7844 138.985 43.4633 115.642C43.1661 113.973 42.8231 112.235 42.4573 110.475C45.4067 109.514 49.9336 106.748 48.9047 107.365C50.368 106.519 50.6652 106.245 50.6652 106.245C54.2776 103.41 54.369 102.175 55.3979 100.758C55.6951 100.598 55.5808 100.141 55.215 100.186C54.9635 100.232 54.8263 100.506 54.6891 100.712C52.8829 102.861 50.2994 104.759 50.7338 104.416C50.528 104.576 50.1165 104.873 49.9336 104.965C49.5906 105.148 45.5896 106.908 45.7725 106.817C43.4633 107.777 42.7545 108.143 42.0229 108.28C41.337 104.965 40.5597 101.467 39.7366 97.8313C40.9255 96.8025 42.8688 94.8363 43.1432 94.5619C43.8291 93.8303 44.3549 93.3044 44.3549 93.3044C48.356 89.2805 51.031 84.9594 53.7746 79.0378C54.1175 78.3062 54.6205 77.1859 54.7577 76.3857C54.9406 75.6998 53.8203 75.8598 54.0947 76.4771Z" fill="#5FA4B0"/>
</g>
<defs>
<clipPath id="clip0_61_258">
<rect width="65" height="160.522" fill="white"/>
</clipPath>
</defs>
</svg>
